PathFileType	3	(X/Y/Z)	D:\minhoCalibration\240510\subject1_KPNP\preferred\preferred06.trc
DataRate	CameraRate	NumFrames	NumMarkers	Units	OrigDataRate	OrigDataStartFrame	OrigNumFrames
200.0	200.0	26	10	mm	200.0	464	190	
Frame#	Time	Left_Ankle_Outer1			Left_Ankle_Inner1			Left_Knee_Outer1			Left_Knee_Inner1			Left_Wrist1			Right_Wrist1			Right_Knee_Inner1			Right_Knee_Outer1			Right_Ankle_Inner1			Right_Ankle_Outer1			
		X1	Y1	Z1	X2	Y2	Z2	X3	Y3	Z3	X4	Y4	Z4	X5	Y5	Z5	X6	Y6	Z6	X7	Y7	Z7	X8	Y8	Z8	X9	Y9	Z9	X10	Y10	Z10	
464	2.31	-547.19415	132.03368	-533.94531	-588.69427	142.6174	-496.50064	-379.05371	541.2431	-409.34686	-481.88525	524.91595	-370.51776	-368.8812	993.32495	-578.79291	-659.35132	1127.0591	-403.19849	-384.89627	883.34052	-82.289009	-476.59201	945.55005	-41.801273	-571.72058	541.28723	145.6109			
465	2.315	-547.25598	131.41827	-534.55823	-588.33081	141.88242	-496.4332	-378.51123	540.70898	-410.52414	-481.45157	524.32617	-371.66504	-367.44693	993.64166	-576.93304	-660.58679	1123.8427	-403.99377	-391.13696	875.86304	-81.151131	-485.30569	935.12097	-41.38483	-578.01501	523.23126	130.23273			
466	2.32	-547.33209	130.96509	-535.19775	-588.39441	140.9408	-496.39648	-377.79587	540.15796	-411.66711	-480.94742	523.78198	-372.55466	-365.96677	993.99182	-575.06055	-661.77612	1120.0828	-405.22723	-397.65414	868.33801	-80.077164	-494.19266	924.19269	-41.522968	-583.54242	506.26904	113.98513			
467	2.325	-547.56464	130.23737	-535.46759	-587.58411	140.22206	-496.30206	-377.13733	539.50958	-412.75574	-480.36414	523.21753	-373.27838	-364.43665	994.33252	-573.1745	-662.88544	1116.5404	-406.3465	-404.34326	860.69232	-79.39373	-503.30515	913.3324	-42.010288	-588.96228	489.1749	97.256973			
468	2.33	-547.70551	129.68826	-536.03143	-588.30988	140.27493	-497.51059	-376.30853	538.79486	-413.70816	-479.84717	522.54211	-373.85095	-363.00385	994.64313	-571.2851	-663.91022	1112.7284	-407.86172	-411.20047	853.05341	-79.020546	-512.26166	902.13751	-43.325043	-593.95074	472.55649	79.879791			
469	2.335	-547.71552	129.21127	-536.57391	-588.5166	140.34653	-498.50305	-375.33093	538.20667	-414.65668	-478.47012	521.93463	-374.5824	-361.578	994.96106	-569.37036	-665.72211	1109.038	-408.33606	-418.18283	845.44305	-79.084244	-521.47473	891.03485	-45.10833	-598.8634	457.05154	62.51947			
470	2.34	-547.58136	128.97867	-537.29907	-588.09747	139.66467	-498.11017	-374.50293	537.35986	-415.41971	-477.39502	521.20953	-375.04755	-360.23032	995.1405	-567.41595	-667.35699	1105.3997	-409.1713	-425.58783	837.73608	-79.415688	-530.97296	880.19861	-47.180679	-603.60681	441.76376	44.6502			
471	2.345	-547.53705	128.56496	-537.75488	-587.81628	139.36388	-498.15329	-373.37982	536.63733	-416.11554	-476.4968	520.6734	-374.92648	-358.9176	995.28479	-565.42462	-668.37494	1101.4766	-410.69171	-433.1889	829.72668	-80.005928	-539.88452	868.93286	-50.24614	-607.35034	427.34604	25.812294			
472	2.35	-547.51941	128.17024	-538.08875	-587.89545	139.0598	-498.62119	-372.35358	535.82635	-416.67554	-475.28198	519.75739	-375.14502	-357.57562	995.27142	-563.45233	-669.8244	1097.7065	-411.82092	-440.96005	821.42407	-80.811691	-549.19659	858.13947	-53.142628	-612.52069	412.92017	7.7171836			
473	2.355	-547.55219	127.89074	-538.27289	-587.39062	139.25211	-499.05005	-371.28131	535.09454	-417.01807	-474.0625	519.09088	-375.05331	-356.43283	995.18311	-561.45618	-670.95898	1093.8339	-413.353	-448.88391	812.91528	-81.850174	-558.48566	847.30597	-56.731091	-616.198	399.60144	-11.703239			
474	2.36	-547.43427	127.68297	-538.52386	-588.03198	139.06982	-499.50085	-370.1633	534.46838	-417.23514	-472.70352	518.41937	-374.90637	-355.00897	995.20917	-559.52179	-672.09985	1089.9565	-414.97095	-456.79755	804.03705	-83.013969	-567.55481	836.6947	-60.698273	-620.80957	386.793	-30.693459			
475	2.365	-547.48254	127.23438	-538.39056	-587.76477	138.88295	-499.66193	-369.06238	533.74738	-417.28949	-471.51123	517.4895	-374.72	-353.90305	995.09045	-557.45935	-673.19537	1086.1228	-416.70575	-464.75705	794.95862	-84.457039	-576.58154	825.25476	-65.789673	-624.93585	374.2674	-50.629772			
476	2.37	-547.25977	127.03422	-538.59839	-587.93604	138.44954	-499.87009	-368.11945	532.95972	-417.21902	-470.36377	516.86792	-374.38782	-352.5994	994.98718	-555.5542	-674.15155	1082.3356	-418.52567	-472.82727	785.72961	-86.245789	-585.7702	814.56201	-70.31337	-629.27673	362.616	-70.361214			
477	2.375	-546.97546	126.76953	-538.80829	-588.40283	139.29564	-501.73569	-367.20282	532.30341	-416.85651	-469.172	516.11084	-374.05783	-351.40338	994.95349	-553.59076	-674.90369	1078.5725	-420.42538	-480.87503	776.32837	-88.414612	-594.6264	803.64056	-75.691643	-633.26886	351.47739	-90.782631			
478	2.38	-546.52399	126.55412	-539.00189	-588.09845	139.07533	-502.07971	-366.31873	531.75342	-416.22876	-468.23624	515.78107	-373.24857	-350.14987	994.92877	-551.63617	-675.47736	1074.8141	-422.41095	-488.99524	766.9035	-91.133438	-603.76843	792.6662	-81.166977	-637.34509	341.06931	-110.72507			
479	2.385	-545.77838	126.4221	-539.67096	-587.66742	138.95264	-502.29709	-365.64008	531.09088	-415.37274	-467.49158	514.97052	-372.93362	-348.96384	994.9245	-549.59863	-675.95221	1071.0941	-424.51587	-496.88489	757.53192	-94.126221	-612.28271	781.52728	-87.759186	-640.98663	331.63803	-132.40639			
480	2.39	-545.09229	126.26105	-539.91864	-587.18604	138.76416	-502.89673	-365.04007	530.50818	-414.33157	-466.99155	514.55981	-372.1618	-347.68155	994.92169	-547.57074	-676.44623	1067.4957	-426.69696	-504.862	748.0368	-97.971695	-620.89697	770.78308	-94.49572	-645.69385	322.14023	-152.83521			
481	2.395	-544.22943	126.02179	-540.26727	-586.58783	138.44637	-503.57605	-364.32593	529.95514	-413.052	-466.37885	513.97827	-371.70682	-346.48856	994.92487	-545.37012	-676.91016	1064.0383	-428.89917	-512.70569	738.48505	-102.4476	-628.93488	760.4751	-101.86348	-648.99567	314.28384	-173.83653			
482	2.4	-543.37738	125.4482	-540.2417	-585.75317	138.23424	-504.33636	-363.90356	529.31427	-411.45609	-466.22961	513.59924	-370.15613	-345.25446	994.90814	-543.09241	-677.42157	1060.6571	-431.21548	-520.44928	728.90918	-107.68312	-637.0954	750.22192	-109.61615	-651.91235	307.11734	-195.00838			
483	2.405	-542.17419	125.31015	-540.89716	-584.77325	138.21298	-504.43173	-363.56165	528.69714	-409.66956	-465.95816	512.93158	-369.77252	-344.00385	994.88239	-540.72003	-678.03406	1057.4932	-433.51495	-527.94727	719.26904	-113.39148	-644.62616	740.35498	-117.90994	-656.90167	298.26065	-216.74429			
484	2.41	-541.03632	124.9792	-541.24438	-583.74994	136.79106	-504.7366	-363.32544	528.06006	-407.74652	-466.43158	512.2428	-368.7272	-342.60507	994.85815	-538.3905	-678.71045	1054.4392	-436.01678	-535.23688	709.57819	-119.62292	-652.19885	731.12543	-125.93749	-659.61206	292.58142	-237.44383			
485	2.415	-540.04401	124.55008	-541.19202	-583.44312	137.45071	-506.6644	-363.25751	527.4519	-405.56641	-466.4473	511.81418	-367.88824	-341.4928	994.75873	-535.75146	-679.48926	1051.6017	-438.52679	-542.32855	699.86621	-126.33175	-659.1604	722.03064	-134.63446	-662.69275	286.23914	-259.29678			
486	2.42	-538.78015	124.18646	-541.44977	-582.46161	137.14383	-507.37793	-363.11673	526.96771	-403.32419	-466.90344	511.30127	-367.02792	-340.52237	994.58734	-533.05157	-680.31995	1048.8376	-441.04959	-549.22113	690.19446	-133.50374	-665.8443	712.86926	-143.96254	-665.78271	280.80905	-280.37021			
487	2.425	-537.35022	124.2045	-542.09766	-581.33234	136.62236	-507.74008	-363.13693	526.48163	-400.96918	-467.66089	510.91486	-365.85611	-339.71753	994.50854	-530.31903	-682.28583	1046.4695	-441.72693	-555.95917	680.65869	-141.00676	-672.28174	704.2536	-153.16331	-668.94366	275.31238	-301.664			
488	2.43	-535.9726	123.96701	-542.40723	-580.52802	136.56743	-508.69257	-363.24081	526.03217	-398.47852	-468.2225	510.50455	-365.189	-338.67087	994.41718	-527.5965	-681.01459	1043.3195	-448.62216	-562.47534	671.23547	-148.9604	-678.46204	695.79071	-162.68742	-671.11218	270.75443	-323.08551			
489	2.435	-534.74945	123.59901	-542.39099	-579.54865	136.37709	-509.47516	-363.58011	525.56818	-395.92847	-469.15341	510.02335	-364.32315	-337.69788	994.34131	-524.80743	-681.91742	1040.9365	-451.55267	-568.8161	662.2478	-156.85901	-684.51746	687.68622	-172.34013	-673.51166	266.46838	-344.31146			
